<?xml version="1.0" standalone="no"?>
<!DOCTYPE svg PUBLIC "-//W3C//DTD SVG 20010904//EN"
 "http://www.w3.org/TR/2001/REC-SVG-20010904/DTD/svg10.dtd">
<svg version="1.0" xmlns="http://www.w3.org/2000/svg"
 width="500.000000pt" height="500.000000pt" viewBox="0 0 500.000000 500.000000"
 preserveAspectRatio="xMidYMid meet">
<metadata>
Created by potrace 1.11, written by Peter Selinger 2001-2013
</metadata>
<g transform="translate(0.000000,500.000000) scale(0.100000,-0.100000)"
fill="#000000" stroke="none">
<path d="M2455 4819 c-27 -16 -57 -34 -65 -39 -37 -22 -547 -316 -565 -326
-21 -11 -357 -205 -485 -280 -41 -24 -253 -146 -470 -272 l-395 -228 -2 -1180
-3 -1179 33 -19 c17 -10 61 -34 97 -54 36 -19 72 -41 81 -48 8 -8 19 -14 22
-14 4 0 36 -18 72 -40 36 -22 68 -40 71 -40 3 0 30 -16 60 -35 30 -19 56 -35
58 -35 3 0 50 -27 106 -60 56 -33 103 -60 105 -60 2 0 49 -27 103 -60 55 -33
105 -60 111 -60 6 0 11 -4 11 -10 0 -5 4 -10 9 -10 5 0 90 -47 188 -103 98
-57 224 -130 281 -163 57 -32 115 -66 130 -75 45 -26 113 -66 177 -102 84 -48
116 -66 227 -131 l97 -56 288 166 c158 92 304 176 323 187 19 10 136 78 259
149 123 72 323 188 445 258 122 70 295 170 386 222 91 53 203 118 250 145 l85
49 2 1180 3 1179 -712 410 c-391 226 -831 479 -977 563 -293 169 -351 202
-354 202 -1 0 -24 -14 -52 -31z m80 -532 c11 -8 45 -27 75 -44 30 -17 159 -90
285 -163 127 -73 313 -181 415 -239 l185 -106 -493 -3 c-270 -1 -713 -1 -983
0 l-490 3 63 36 c35 20 79 46 98 56 19 11 86 50 149 87 62 36 115 66 116 66 2
0 32 17 66 38 35 22 84 50 109 64 25 14 119 68 210 121 91 53 167 96 170 96 3
1 14 -5 25 -12z m1537 -1074 c2 -10 3 -119 3 -243 l0 -225 -1565 0 -1565 0 0
235 c-1 129 1 238 3 243 2 4 704 7 1561 7 1476 0 1559 -1 1563 -17z m3 -1213
l0 -240 -1565 0 -1565 0 1 238 c1 130 2 238 3 240 0 1 704 2 1564 2 l1562 0 0
-240z m-595 -751 c-8 -5 -35 -21 -60 -34 -25 -14 -63 -36 -85 -50 -22 -14 -46
-28 -54 -32 -8 -3 -64 -35 -125 -71 -125 -72 -363 -209 -416 -239 -19 -11 -79
-46 -133 -77 l-98 -57 -272 157 c-150 86 -285 165 -302 175 -16 10 -36 22 -44
26 -20 9 -355 204 -360 209 -2 2 439 4 980 4 675 0 979 -4 969 -11z"/>
</g>
</svg>
